<svg width="250.885" height="111.417" xmlns="http://www.w3.org/2000/svg">

 <g>
  <title>background</title>
  <rect fill="none" id="canvas_background" height="402" width="582" y="-1" x="-1"/>
 </g>
 <g>
  <title>Layer 1</title>
  <g id="svg_1">
   <path fill="#ffffff" id="svg_2" d="m17.856,59.161c0,2.016 -0.18,3.948 -0.54,5.796s-0.732,3.756 -1.116,5.725c1.728,-0.961 3.432,-1.896 5.112,-2.809c1.68,-0.911 3.503,-1.703 5.472,-2.376l0.432,-0.144l2.016,6.047l-0.576,0.217c-1.92,0.72 -3.84,1.188 -5.76,1.404c-1.92,0.215 -3.888,0.396 -5.904,0.539c1.584,1.345 3.071,2.653 4.464,3.924c1.392,1.273 2.688,2.749 3.888,4.429l0.36,0.504l-5.256,3.672l-0.288,-0.433c-1.152,-1.727 -2.149,-3.443 -2.988,-5.147c-0.84,-1.703 -1.692,-3.468 -2.556,-5.292c-0.864,1.824 -1.716,3.589 -2.556,5.292c-0.84,1.704 -1.836,3.421 -2.988,5.147l-0.288,0.433l-5.256,-3.672l0.36,-0.504c1.2,-1.68 2.496,-3.155 3.888,-4.429c1.392,-1.271 2.88,-2.579 4.464,-3.924c-2.016,-0.144 -3.984,-0.324 -5.904,-0.539c-1.92,-0.217 -3.841,-0.685 -5.76,-1.404l-0.576,-0.217l2.016,-6.047l0.432,0.144c1.968,0.673 3.792,1.465 5.472,2.376c1.68,0.912 3.384,1.848 5.112,2.809c-0.385,-1.969 -0.756,-3.877 -1.116,-5.725s-0.54,-3.78 -0.54,-5.796l0,-0.576l6.48,0l0,0.576z"/>
   <path fill="#ffffff" id="svg_3" d="m33.155,72.058c1.536,-0.384 3.564,-0.792 6.084,-1.225c2.52,-0.432 5.436,-0.647 8.748,-0.647c2.4,0 4.416,0.323 6.048,0.972c1.631,0.648 2.999,1.597 4.104,2.844c0.335,-0.239 0.864,-0.576 1.584,-1.008c0.72,-0.432 1.607,-0.852 2.664,-1.26c1.055,-0.407 2.232,-0.768 3.528,-1.08c1.296,-0.312 2.688,-0.468 4.176,-0.468c2.88,0 5.231,0.421 7.056,1.26c1.824,0.841 3.251,2.028 4.284,3.563c1.031,1.537 1.728,3.361 2.088,5.473c0.36,2.113 0.54,4.417 0.54,6.912l0,21.023l-6.696,0l0,-19.584c0,-2.207 -0.108,-4.104 -0.324,-5.688s-0.625,-2.904 -1.224,-3.96c-0.601,-1.056 -1.417,-1.836 -2.448,-2.34c-1.033,-0.505 -2.365,-0.757 -3.996,-0.757c-2.257,0 -4.116,0.301 -5.58,0.9c-1.465,0.602 -2.46,1.141 -2.988,1.62c0.383,1.249 0.671,2.616 0.864,4.104c0.191,1.488 0.288,3.049 0.288,4.68l0,21.023l-6.696,0l0,-19.582c0,-2.207 -0.12,-4.104 -0.36,-5.688c-0.241,-1.584 -0.66,-2.904 -1.26,-3.96c-0.601,-1.056 -1.417,-1.836 -2.448,-2.34c-1.033,-0.505 -2.34,-0.757 -3.924,-0.757c-0.673,0 -1.393,0.025 -2.16,0.072c-0.768,0.049 -1.5,0.108 -2.196,0.18c-0.696,0.072 -1.332,0.157 -1.908,0.252c-0.576,0.098 -0.96,0.17 -1.152,0.217l0,31.607l-6.696,0l0,-36.358z"/>
   <path fill="#ffffff" id="svg_4" d="m88.494,89.473c0,-3.312 0.479,-6.203 1.44,-8.677c0.96,-2.471 2.232,-4.523 3.816,-6.155s3.407,-2.855 5.472,-3.672c2.063,-0.815 4.176,-1.224 6.336,-1.224c5.04,0 8.903,1.572 11.592,4.715c2.688,3.145 4.032,7.934 4.032,14.365c0,0.287 0,0.66 0,1.115c0,0.457 -0.024,0.877 -0.072,1.26l-25.632,0c0.288,3.889 1.416,6.84 3.384,8.856c1.968,2.017 5.04,3.024 9.216,3.024c2.352,0 4.332,-0.204 5.94,-0.612c1.608,-0.407 2.819,-0.804 3.636,-1.188l0.936,5.616c-0.817,0.433 -2.245,0.889 -4.284,1.368c-2.041,0.479 -4.356,0.72 -6.948,0.72c-3.265,0 -6.084,-0.493 -8.46,-1.476c-2.376,-0.983 -4.333,-2.34 -5.868,-4.068c-1.537,-1.729 -2.676,-3.779 -3.42,-6.156c-0.744,-2.375 -1.116,-4.978 -1.116,-7.811zm25.547,-3.672c0.047,-3.024 -0.708,-5.509 -2.268,-7.452c-1.56,-1.943 -3.708,-2.916 -6.444,-2.916c-1.537,0 -2.893,0.301 -4.068,0.9c-1.177,0.601 -2.172,1.38 -2.988,2.34c-0.817,0.961 -1.452,2.064 -1.908,3.312c-0.457,1.249 -0.756,2.521 -0.9,3.816l18.576,0z"/>
   <path fill="#ffffff" id="svg_5" d="m132.532,70.752l14.184,0l0,5.615l-14.184,0l0,17.281c0,1.871 0.144,3.42 0.432,4.644s0.72,2.185 1.296,2.88c0.576,0.696 1.296,1.188 2.16,1.477c0.864,0.287 1.872,0.432 3.024,0.432c2.016,0 3.636,-0.228 4.86,-0.684s2.076,-0.78 2.556,-0.973l1.296,5.544c-0.673,0.337 -1.848,0.757 -3.528,1.261c-1.681,0.504 -3.6,0.756 -5.76,0.756c-2.544,0 -4.644,-0.324 -6.3,-0.973c-1.656,-0.648 -2.988,-1.619 -3.996,-2.916c-1.008,-1.296 -1.717,-2.891 -2.124,-4.787c-0.408,-1.896 -0.612,-4.092 -0.612,-6.589l0,-33.407l6.696,-1.152l0,11.591z"/>
   <path fill="#ffffff" id="svg_6" d="m166.787,70.186c0.576,0 1.235,0.036 1.98,0.108c0.744,0.072 1.476,0.168 2.196,0.287c0.72,0.121 1.379,0.241 1.98,0.36c0.6,0.12 1.044,0.229 1.332,0.324l-1.152,5.832c-0.529,-0.191 -1.404,-0.42 -2.628,-0.685c-1.224,-0.263 -2.797,-0.396 -4.716,-0.396c-1.249,0 -2.484,0.133 -3.708,0.396c-1.224,0.265 -2.028,0.445 -2.412,0.541l0,31.463l-6.696,0l0,-35.854c1.584,-0.576 3.552,-1.116 5.904,-1.62c2.351,-0.504 4.992,-0.756 7.92,-0.756z"/>
   <path fill="#ffffff" id="svg_7" d="m182.656,64.21c-1.2,0 -2.221,-0.396 -3.06,-1.188c-0.841,-0.792 -1.26,-1.86 -1.26,-3.204s0.419,-2.412 1.26,-3.204c0.839,-0.792 1.859,-1.188 3.06,-1.188c1.2,0 2.22,0.396 3.06,1.188c0.839,0.792 1.26,1.86 1.26,3.204s-0.421,2.412 -1.26,3.204c-0.84,0.791 -1.86,1.188 -3.06,1.188zm3.385,44.207l-6.696,0l0,-37.439l6.696,0l0,37.439z"/>
   <path fill="#ffffff" id="svg_8" d="m209.366,108.984c-3.024,0 -5.677,-0.479 -7.956,-1.44c-2.28,-0.959 -4.201,-2.303 -5.76,-4.031c-1.561,-1.729 -2.726,-3.78 -3.492,-6.156c-0.769,-2.376 -1.152,-5.004 -1.152,-7.884s0.42,-5.52 1.26,-7.92c0.84,-2.399 2.027,-4.476 3.564,-6.228c1.535,-1.752 3.42,-3.12 5.652,-4.104c2.231,-0.983 4.716,-1.476 7.451,-1.476c1.68,0 3.359,0.144 5.04,0.432c1.68,0.288 3.288,0.744 4.824,1.367l-1.512,5.688c-1.008,-0.479 -2.173,-0.864 -3.492,-1.151c-1.32,-0.289 -2.725,-0.433 -4.212,-0.433c-3.744,0 -6.613,1.177 -8.604,3.528c-1.992,2.352 -2.987,5.785 -2.987,10.296c0,2.017 0.227,3.864 0.684,5.544c0.456,1.681 1.176,3.121 2.16,4.32c0.983,1.2 2.243,2.123 3.78,2.771c1.535,0.648 3.407,0.973 5.616,0.973c1.774,0 3.384,-0.168 4.823,-0.504c1.44,-0.336 2.567,-0.695 3.384,-1.08l0.937,5.615c-0.385,0.241 -0.937,0.469 -1.656,0.684c-0.72,0.217 -1.536,0.408 -2.448,0.576s-1.884,0.313 -2.916,0.433c-1.033,0.12 -2.029,0.18 -2.988,0.18z"/>
   <path fill="#ffffff" id="svg_9" d="m236.053,103.296c2.736,0 4.764,-0.359 6.084,-1.079s1.98,-1.872 1.98,-3.456c0,-1.631 -0.648,-2.928 -1.944,-3.889c-1.296,-0.959 -3.433,-2.039 -6.408,-3.239c-1.439,-0.576 -2.82,-1.163 -4.14,-1.765c-1.32,-0.6 -2.46,-1.307 -3.42,-2.123c-0.961,-0.816 -1.728,-1.801 -2.304,-2.953c-0.576,-1.151 -0.864,-2.566 -0.864,-4.248c0,-3.312 1.224,-5.939 3.672,-7.883c2.448,-1.944 5.784,-2.916 10.008,-2.916c1.056,0 2.112,0.061 3.168,0.18c1.056,0.12 2.04,0.264 2.952,0.432c0.911,0.169 1.716,0.35 2.412,0.54c0.695,0.192 1.235,0.36 1.62,0.504l-1.224,5.761c-0.721,-0.385 -1.849,-0.78 -3.385,-1.188c-1.536,-0.407 -3.384,-0.612 -5.544,-0.612c-1.872,0 -3.504,0.373 -4.896,1.116c-1.393,0.745 -2.088,1.908 -2.088,3.492c0,0.816 0.155,1.536 0.468,2.159c0.312,0.625 0.792,1.188 1.439,1.693c0.648,0.504 1.452,0.971 2.412,1.403s2.112,0.889 3.456,1.368c1.775,0.672 3.359,1.332 4.752,1.98c1.392,0.647 2.58,1.403 3.564,2.268c0.983,0.863 1.739,1.908 2.268,3.132s0.792,2.725 0.792,4.5c0,3.456 -1.284,6.073 -3.852,7.849c-2.568,1.775 -6.229,2.663 -10.98,2.663c-3.312,0 -5.903,-0.276 -7.775,-0.827c-1.872,-0.552 -3.145,-0.973 -3.816,-1.261l1.224,-5.76c0.768,0.288 1.992,0.72 3.673,1.296c1.681,0.576 3.912,0.863 6.696,0.863z"/>
  </g>
  <g id="svg_10">
   <path id="svg_11" d="m89.275,57.068c-1.319,0 -2.443,-0.437 -3.364,-1.309c-0.926,-0.87 -1.387,-2.045 -1.387,-3.523c0,-1.478 0.46,-2.653 1.387,-3.525c0.921,-0.87 2.045,-1.307 3.364,-1.307c1.32,0 2.443,0.437 3.367,1.307c0.924,0.872 1.386,2.048 1.386,3.525c0,1.479 -0.462,2.653 -1.386,3.523c-0.924,0.873 -2.047,1.309 -3.367,1.309" fill="#EC6236"/>
   <path id="svg_12" d="m89.275,46.612c-1.319,0 -2.443,-0.436 -3.364,-1.308c-0.926,-0.87 -1.387,-2.046 -1.387,-3.523c0,-1.479 0.46,-2.653 1.387,-3.525c0.921,-0.87 2.045,-1.307 3.364,-1.307c1.32,0 2.443,0.437 3.367,1.307c0.924,0.872 1.386,2.047 1.386,3.525c0,1.478 -0.462,2.653 -1.386,3.523c-0.924,0.873 -2.047,1.308 -3.367,1.308" fill="#449DD7"/>
   <path id="svg_13" d="m89.275,54.639c-1.319,0 -2.443,-0.436 -3.364,-1.308c-0.926,-0.87 -1.387,-2.045 -1.387,-3.523s0.46,-2.653 1.387,-3.525c0.921,-0.87 2.045,-1.307 3.364,-1.307c1.32,0 2.443,0.437 3.367,1.307c0.924,0.872 1.386,2.047 1.386,3.525s-0.462,2.653 -1.386,3.523c-0.924,0.872 -2.047,1.308 -3.367,1.308" fill="#9A9B9B"/>
  </g>
  <g id="svg_14">
   <path id="svg_15" d="m115.776,29.722c-1.319,0 -2.443,-0.437 -3.365,-1.309c-0.926,-0.87 -1.387,-2.046 -1.387,-3.523c0,-1.479 0.461,-2.653 1.387,-3.525c0.922,-0.87 2.045,-1.307 3.365,-1.307c1.32,0 2.443,0.437 3.367,1.307c0.924,0.872 1.386,2.047 1.386,3.525c0,1.478 -0.462,2.653 -1.386,3.523c-0.924,0.872 -2.047,1.309 -3.367,1.309" fill="#3D325E"/>
   <path id="svg_16" d="m115.776,42.183c-1.319,0 -2.443,-0.436 -3.365,-1.308c-0.926,-0.87 -1.387,-2.045 -1.387,-3.523c0,-1.478 0.461,-2.653 1.387,-3.525c0.922,-0.87 2.045,-1.307 3.365,-1.307c1.32,0 2.443,0.437 3.367,1.307c0.924,0.872 1.386,2.048 1.386,3.525c0,1.479 -0.462,2.653 -1.386,3.523c-0.924,0.872 -2.047,1.308 -3.367,1.308" fill="#9A9B9B"/>
   <path id="svg_17" d="m115.776,21.694c-1.319,0 -2.443,-0.434 -3.365,-1.307c-0.926,-0.87 -1.388,-2.045 -1.388,-3.524c0,-1.477 0.462,-2.653 1.388,-3.524c0.922,-0.871 2.045,-1.306 3.365,-1.306c1.319,0 2.443,0.435 3.367,1.306s1.386,2.048 1.386,3.524c0,1.479 -0.462,2.654 -1.386,3.524c-0.924,0.874 -2.048,1.307 -3.367,1.307" fill="#449DD7"/>
   <path id="svg_18" d="m115.776,58.592c-1.319,0 -2.443,-0.435 -3.365,-1.307c-0.926,-0.87 -1.387,-2.046 -1.387,-3.523c0,-1.479 0.461,-2.653 1.387,-3.526c0.922,-0.87 2.045,-1.306 3.365,-1.306c1.32,0 2.443,0.436 3.367,1.306c0.924,0.873 1.386,2.048 1.386,3.526c0,1.478 -0.462,2.653 -1.386,3.523c-0.924,0.872 -2.047,1.307 -3.367,1.307" fill="#EC6236"/>
   <path id="svg_19" d="m115.776,51.553c-1.319,0 -2.443,-0.434 -3.365,-1.306c-0.926,-0.87 -1.387,-2.046 -1.387,-3.523c0,-1.479 0.461,-2.653 1.387,-3.525c0.922,-0.87 2.045,-1.307 3.365,-1.307c1.32,0 2.443,0.437 3.367,1.307c0.924,0.872 1.386,2.047 1.386,3.525c0,1.478 -0.462,2.653 -1.386,3.523c-0.924,0.872 -2.047,1.306 -3.367,1.306" fill="#449DD7"/>
  </g>
  <g id="svg_20">
   <path id="svg_21" d="m37.505,60.625c-1.319,0 -2.443,-0.436 -3.364,-1.308c-0.926,-0.87 -1.387,-2.046 -1.387,-3.523c0,-1.479 0.46,-2.653 1.387,-3.525c0.921,-0.87 2.045,-1.307 3.364,-1.307c1.32,0 2.443,0.437 3.367,1.307c0.924,0.872 1.386,2.047 1.386,3.525c0,1.478 -0.462,2.653 -1.386,3.523c-0.924,0.872 -2.047,1.308 -3.367,1.308" fill="#EC6236"/>
   <g id="svg_22">
    <path id="svg_23" d="m37.505,50.726c-1.319,0 -2.443,-0.435 -3.364,-1.308c-0.926,-0.87 -1.387,-2.045 -1.387,-3.523c0,-1.478 0.46,-2.653 1.387,-3.525c0.921,-0.87 2.045,-1.306 3.364,-1.306c1.32,0 2.443,0.436 3.367,1.306c0.924,0.872 1.386,2.048 1.386,3.525c0,1.479 -0.462,2.653 -1.386,3.523c-0.924,0.873 -2.047,1.308 -3.367,1.308" fill="#449DD7"/>
    <path id="svg_24" d="m37.505,64.103c-1.319,0 -2.443,-0.437 -3.365,-1.309c-0.926,-0.87 -1.387,-2.046 -1.387,-3.523c0,-1.479 0.461,-2.653 1.387,-3.525c0.922,-0.87 2.045,-1.307 3.365,-1.307c1.32,0 2.443,0.437 3.367,1.307c0.924,0.872 1.386,2.047 1.386,3.525c0,1.478 -0.462,2.653 -1.386,3.523c-0.924,0.872 -2.047,1.309 -3.367,1.309" fill="#9A9B9B"/>
   </g>
  </g>
  <g id="svg_25">
   <path id="svg_26" d="m102.525,58.32c-1.319,0 -2.443,-0.436 -3.365,-1.308c-0.926,-0.87 -1.387,-2.045 -1.387,-3.523c0,-1.478 0.461,-2.653 1.387,-3.525c0.922,-0.87 2.045,-1.307 3.365,-1.307c1.32,0 2.443,0.437 3.367,1.307c0.924,0.872 1.386,2.048 1.386,3.525c0,1.479 -0.462,2.653 -1.386,3.523c-0.924,0.873 -2.047,1.308 -3.367,1.308" fill="#3D325E"/>
   <path id="svg_27" d="m76.213,64.25c-1.319,0 -2.443,-0.436 -3.365,-1.308c-0.926,-0.87 -1.387,-2.045 -1.387,-3.523c0,-1.478 0.461,-2.653 1.387,-3.525c0.922,-0.87 2.045,-1.307 3.365,-1.307c1.32,0 2.443,0.437 3.367,1.307c0.924,0.872 1.386,2.048 1.386,3.525c0,1.479 -0.462,2.653 -1.386,3.523c-0.924,0.872 -2.047,1.308 -3.367,1.308" fill="#3D325E"/>
   <g id="svg_28">
    <path id="svg_29" d="m76.213,16.963c-1.319,0 -2.443,-0.435 -3.364,-1.307c-0.926,-0.87 -1.387,-2.046 -1.387,-3.523c0,-1.479 0.461,-2.653 1.387,-3.525c0.921,-0.87 2.045,-1.307 3.364,-1.307c1.32,0 2.443,0.437 3.367,1.307c0.924,0.872 1.386,2.047 1.386,3.525c0,1.478 -0.462,2.653 -1.386,3.523c-0.924,0.872 -2.047,1.307 -3.367,1.307" fill="#EC6236"/>
    <g id="svg_30">
     <g id="svg_31">
      <path id="svg_32" d="m76.213,10.623c-1.319,0 -2.443,-0.435 -3.364,-1.307c-0.926,-0.87 -1.387,-2.046 -1.387,-3.523c0,-1.479 0.461,-2.653 1.387,-3.526c0.921,-0.87 2.045,-1.306 3.364,-1.306c1.32,0 2.443,0.436 3.367,1.306c0.924,0.873 1.386,2.048 1.386,3.526c0,1.478 -0.462,2.653 -1.386,3.523c-0.924,0.872 -2.047,1.307 -3.367,1.307" fill="#9A9B9B"/>
      <path id="svg_33" d="m76.213,27.104c-1.319,0 -2.443,-0.435 -3.364,-1.307c-0.926,-0.87 -1.387,-2.046 -1.387,-3.523c0,-1.479 0.461,-2.653 1.387,-3.525c0.921,-0.87 2.045,-1.307 3.364,-1.307c1.32,0 2.443,0.437 3.367,1.307c0.924,0.872 1.386,2.047 1.386,3.525c0,1.478 -0.462,2.653 -1.386,3.523c-0.924,0.872 -2.047,1.307 -3.367,1.307" fill="#449DD7"/>
     </g>
     <path id="svg_34" d="m76.213,43.249c-1.319,0 -2.443,-0.435 -3.364,-1.307c-0.926,-0.87 -1.387,-2.046 -1.387,-3.523c0,-1.479 0.461,-2.653 1.387,-3.525c0.921,-0.87 2.045,-1.307 3.364,-1.307c1.32,0 2.443,0.437 3.367,1.307c0.924,0.872 1.386,2.047 1.386,3.525c0,1.478 -0.462,2.653 -1.386,3.523c-0.924,0.872 -2.047,1.307 -3.367,1.307" fill="#EC6236"/>
    </g>
   </g>
  </g>
  <g id="svg_35">
   <g id="svg_36">
    <path id="svg_37" d="m102.525,16.032c-1.319,0 -2.442,-0.437 -3.364,-1.309c-0.926,-0.87 -1.387,-2.046 -1.387,-3.523c0,-1.479 0.461,-2.653 1.387,-3.525c0.922,-0.87 2.045,-1.307 3.364,-1.307c1.32,0 2.443,0.437 3.367,1.307c0.924,0.872 1.386,2.047 1.386,3.525c0,1.478 -0.462,2.653 -1.386,3.523c-0.924,0.873 -2.047,1.309 -3.367,1.309" fill="#449DD7"/>
    <path id="svg_38" d="m102.525,40.846c-1.319,0 -2.442,-0.434 -3.364,-1.306c-0.926,-0.87 -1.387,-2.046 -1.387,-3.523c0,-1.479 0.461,-2.653 1.387,-3.525c0.922,-0.87 2.045,-1.307 3.364,-1.307c1.32,0 2.443,0.437 3.367,1.307c0.924,0.872 1.386,2.047 1.386,3.525c0,1.478 -0.462,2.653 -1.386,3.523c-0.924,0.872 -2.047,1.306 -3.367,1.306" fill="#449DD7"/>
   </g>
   <path id="svg_39" d="m102.525,20.863c-1.319,0 -2.442,-0.436 -3.364,-1.309c-0.926,-0.87 -1.387,-2.045 -1.387,-3.523c0,-1.478 0.461,-2.653 1.387,-3.525c0.922,-0.87 2.045,-1.306 3.364,-1.306c1.32,0 2.443,0.436 3.367,1.306c0.924,0.872 1.386,2.048 1.386,3.525c0,1.479 -0.462,2.653 -1.386,3.523c-0.924,0.874 -2.047,1.309 -3.367,1.309" fill="#9A9B9B"/>
   <path id="svg_40" d="m102.525,64.158c-1.319,0 -2.442,-0.435 -3.364,-1.308c-0.926,-0.87 -1.387,-2.045 -1.387,-3.523c0,-1.478 0.461,-2.653 1.387,-3.525c0.922,-0.87 2.045,-1.306 3.364,-1.306c1.32,0 2.443,0.436 3.367,1.306c0.924,0.872 1.386,2.048 1.386,3.525c0,1.479 -0.462,2.653 -1.386,3.523c-0.924,0.874 -2.047,1.308 -3.367,1.308" fill="#EC6236"/>
  </g>
  <g id="svg_41">
   <path id="svg_42" d="m50.212,32.034c-1.319,0 -2.443,-0.435 -3.364,-1.307c-0.926,-0.87 -1.387,-2.046 -1.387,-3.523c0,-1.479 0.46,-2.653 1.387,-3.526c0.921,-0.87 2.045,-1.306 3.364,-1.306c1.32,0 2.443,0.436 3.367,1.306c0.924,0.873 1.386,2.048 1.386,3.526c0,1.478 -0.462,2.653 -1.386,3.523c-0.924,0.873 -2.046,1.307 -3.367,1.307" fill="#3D325E"/>
   <g id="svg_43">
    <path id="svg_44" d="m50.212,27.203c-1.319,0 -2.442,-0.435 -3.364,-1.307c-0.926,-0.87 -1.387,-2.046 -1.387,-3.523c0,-1.479 0.461,-2.653 1.387,-3.526c0.922,-0.87 2.045,-1.306 3.364,-1.306c1.32,0 2.443,0.436 3.367,1.306c0.924,0.873 1.386,2.048 1.386,3.526c0,1.478 -0.462,2.653 -1.386,3.523c-0.924,0.873 -2.046,1.307 -3.367,1.307" fill="#EC6236"/>
    <g id="svg_45">
     <g id="svg_46">
      <path id="svg_47" d="m50.212,20.863c-1.319,0 -2.442,-0.435 -3.364,-1.308c-0.926,-0.87 -1.387,-2.045 -1.387,-3.523c0,-1.478 0.461,-2.653 1.387,-3.525c0.922,-0.87 2.045,-1.306 3.364,-1.306c1.32,0 2.443,0.436 3.367,1.306c0.924,0.872 1.386,2.048 1.386,3.525c0,1.479 -0.462,2.653 -1.386,3.523c-0.924,0.874 -2.046,1.308 -3.367,1.308" fill="#9A9B9B"/>
      <path id="svg_48" d="m50.212,37.344c-1.319,0 -2.442,-0.435 -3.364,-1.307c-0.926,-0.87 -1.387,-2.046 -1.387,-3.523c0,-1.479 0.461,-2.653 1.387,-3.526c0.922,-0.87 2.045,-1.306 3.364,-1.306c1.32,0 2.443,0.436 3.367,1.306c0.924,0.873 1.386,2.048 1.386,3.526c0,1.478 -0.462,2.653 -1.386,3.523c-0.924,0.872 -2.046,1.307 -3.367,1.307" fill="#449DD7"/>
     </g>
     <path id="svg_49" d="m50.212,53.489c-1.319,0 -2.442,-0.435 -3.364,-1.307c-0.926,-0.87 -1.387,-2.046 -1.387,-3.523c0,-1.479 0.461,-2.653 1.387,-3.526c0.922,-0.87 2.045,-1.306 3.364,-1.306c1.32,0 2.443,0.436 3.367,1.306c0.924,0.873 1.386,2.048 1.386,3.526c0,1.478 -0.462,2.653 -1.386,3.523c-0.924,0.873 -2.046,1.307 -3.367,1.307" fill="#EC6236"/>
    </g>
   </g>
  </g>
  <g id="svg_50">
   <g id="svg_51">
    <g id="svg_52">
     <path id="svg_53" d="m63.088,31.283c-1.319,0 -2.443,-0.437 -3.365,-1.309c-0.926,-0.87 -1.387,-2.045 -1.387,-3.523s0.461,-2.653 1.387,-3.524c0.922,-0.871 2.045,-1.308 3.365,-1.308c1.32,0 2.442,0.437 3.366,1.308s1.386,2.046 1.386,3.524s-0.462,2.653 -1.386,3.523c-0.924,0.873 -2.046,1.309 -3.366,1.309" fill="#9A9B9B"/>
     <path id="svg_54" d="m63.088,33.87c-1.319,0 -2.443,-0.436 -3.365,-1.308c-0.926,-0.87 -1.387,-2.046 -1.387,-3.523c0,-1.479 0.461,-2.653 1.387,-3.525c0.922,-0.87 2.045,-1.307 3.365,-1.307c1.32,0 2.442,0.437 3.366,1.307c0.924,0.872 1.386,2.047 1.386,3.525c0,1.478 -0.462,2.653 -1.386,3.523c-0.924,0.873 -2.046,1.308 -3.366,1.308" fill="#EC6236"/>
     <path id="svg_55" d="m63.088,53.082c-1.319,0 -2.443,-0.435 -3.365,-1.307c-0.926,-0.87 -1.387,-2.046 -1.387,-3.523c0,-1.479 0.461,-2.653 1.387,-3.525c0.922,-0.87 2.045,-1.307 3.365,-1.307c1.32,0 2.442,0.437 3.366,1.307c0.924,0.872 1.386,2.047 1.386,3.525c0,1.478 -0.462,2.653 -1.386,3.523c-0.924,0.872 -2.046,1.307 -3.366,1.307" fill="#449DD7"/>
     <path id="svg_56" d="m63.088,58.92c-1.319,0 -2.443,-0.436 -3.365,-1.308c-0.926,-0.87 -1.387,-2.045 -1.387,-3.523c0,-1.478 0.461,-2.653 1.387,-3.525c0.922,-0.87 2.045,-1.307 3.365,-1.307c1.32,0 2.442,0.437 3.366,1.307c0.924,0.872 1.386,2.048 1.386,3.525c0,1.479 -0.462,2.653 -1.386,3.523c-0.924,0.872 -2.046,1.308 -3.366,1.308" fill="#9A9B9B"/>
    </g>
    <path id="svg_57" d="m63.088,45.678c-1.319,0 -2.443,-0.435 -3.365,-1.307c-0.926,-0.87 -1.387,-2.046 -1.387,-3.523c0,-1.479 0.461,-2.653 1.387,-3.526c0.922,-0.87 2.045,-1.306 3.365,-1.306c1.32,0 2.442,0.436 3.366,1.306c0.924,0.873 1.386,2.048 1.386,3.526c0,1.478 -0.462,2.653 -1.386,3.523c-0.924,0.872 -2.046,1.307 -3.366,1.307" fill="#449DD7"/>
   </g>
   <path id="svg_58" d="m63.087,47.009c-1.319,0 -2.442,-0.435 -3.364,-1.307c-0.926,-0.87 -1.387,-2.046 -1.387,-3.523c0,-1.479 0.461,-2.653 1.387,-3.526c0.922,-0.87 2.045,-1.306 3.364,-1.306c1.32,0 2.443,0.436 3.367,1.306c0.924,0.873 1.386,2.048 1.386,3.526c0,1.478 -0.462,2.653 -1.386,3.523c-0.924,0.872 -2.046,1.307 -3.367,1.307" fill="#3D325E"/>
  </g>
  <path id="svg_59" d="m37.505,43.75c-1.319,0 -2.443,-0.436 -3.364,-1.308c-0.926,-0.87 -1.387,-2.046 -1.387,-3.523c0,-1.479 0.46,-2.653 1.387,-3.525c0.921,-0.87 2.045,-1.307 3.364,-1.307c1.32,0 2.443,0.437 3.367,1.307c0.924,0.872 1.386,2.047 1.386,3.525c0,1.478 -0.462,2.653 -1.386,3.523c-0.924,0.872 -2.047,1.308 -3.367,1.308" fill="#3D325E"/>
  <path id="svg_60" d="m89.275,24.207c-1.319,0 -2.443,-0.436 -3.365,-1.308c-0.926,-0.87 -1.387,-2.045 -1.387,-3.523c0,-1.478 0.461,-2.653 1.387,-3.525c0.922,-0.87 2.045,-1.307 3.365,-1.307c1.32,0 2.443,0.437 3.367,1.307c0.924,0.872 1.386,2.048 1.386,3.525c0,1.479 -0.462,2.653 -1.386,3.523c-0.924,0.872 -2.046,1.308 -3.367,1.308" fill="#3D325E"/>
 </g>
</svg>