<?xml version="1.0" standalone="no"?><!-- Generator: Gravit.io --><svg xmlns="http://www.w3.org/2000/svg" xmlns:xlink="http://www.w3.org/1999/xlink" style="isolation:isolate" viewBox="0 0 250.9 136" width="250.9" height="136"><g style="isolation:isolate"/><g style="isolation:isolate"><g transform="matrix(1,0,0,1,0,109.039)"><text transform="matrix(1,0,0,1,155.104,25.348)" style="font-family:&quot;Arial&quot;;font-weight:700;font-size:28px;font-style:normal;fill:#ffffff;stroke:none;">SoMeR</text></g><g><g><g><path d=" M 17.856 58.2 C 17.856 60.216 17.676 62.148 17.316 63.996 C 16.956 65.844 16.584 67.752 16.2 69.721 C 17.928 68.76 19.632 67.825 21.312 66.912 C 22.992 66.001 24.815 65.209 26.784 64.536 L 27.216 64.392 L 29.232 70.439 L 28.656 70.656 C 26.736 71.376 24.816 71.844 22.896 72.06 C 20.976 72.275 19.008 72.456 16.992 72.599 C 18.576 73.944 20.063 75.252 21.456 76.523 C 22.848 77.796 24.144 79.272 25.344 80.952 L 25.704 81.456 L 20.448 85.128 L 20.16 84.695 C 19.008 82.968 18.011 81.252 17.172 79.548 C 16.332 77.845 15.48 76.08 14.616 74.256 C 13.752 76.08 12.9 77.845 12.06 79.548 C 11.22 81.252 10.224 82.969 9.072 84.695 L 8.784 85.128 L 3.528 81.456 L 3.888 80.952 C 5.088 79.272 6.384 77.797 7.776 76.523 C 9.168 75.252 10.656 73.944 12.24 72.599 C 10.224 72.455 8.256 72.275 6.336 72.06 C 4.416 71.843 2.495 71.375 0.576 70.656 L 0 70.439 L 2.016 64.392 L 2.448 64.536 C 4.416 65.209 6.24 66.001 7.92 66.912 C 9.6 67.824 11.304 68.76 13.032 69.721 C 12.647 67.752 12.276 65.844 11.916 63.996 C 11.556 62.148 11.376 60.216 11.376 58.2 L 11.376 57.624 L 17.856 57.624 L 17.856 58.2 Z " fill="rgb(255,255,255)"/><path d=" M 33.155 71.097 C 34.691 70.713 36.719 70.305 39.239 69.872 C 41.759 69.44 44.675 69.225 47.987 69.225 C 50.387 69.225 52.403 69.548 54.035 70.197 C 55.666 70.845 57.034 71.794 58.139 73.041 C 58.474 72.802 59.003 72.465 59.723 72.033 C 60.443 71.601 61.33 71.181 62.387 70.773 C 63.442 70.366 64.619 70.005 65.915 69.693 C 67.211 69.381 68.603 69.225 70.091 69.225 C 72.971 69.225 75.322 69.646 77.147 70.485 C 78.971 71.326 80.398 72.513 81.431 74.048 C 82.462 75.585 83.159 77.409 83.519 79.521 C 83.879 81.634 84.059 83.938 84.059 86.433 L 84.059 107.456 L 77.363 107.456 L 77.363 87.872 C 77.363 85.665 77.255 83.768 77.039 82.184 C 76.823 80.6 76.414 79.28 75.815 78.224 C 75.214 77.168 74.398 76.388 73.367 75.884 C 72.334 75.379 71.002 75.127 69.371 75.127 C 67.114 75.127 65.255 75.428 63.791 76.027 C 62.326 76.629 61.331 77.168 60.803 77.647 C 61.186 78.896 61.474 80.263 61.667 81.751 C 61.858 83.239 61.955 84.8 61.955 86.431 L 61.955 107.454 L 55.259 107.454 L 55.259 87.872 C 55.259 85.665 55.139 83.768 54.899 82.184 C 54.658 80.6 54.239 79.28 53.639 78.224 C 53.038 77.168 52.222 76.388 51.191 75.884 C 50.158 75.379 48.851 75.127 47.267 75.127 C 46.594 75.127 45.874 75.152 45.107 75.199 C 44.339 75.248 43.607 75.307 42.911 75.379 C 42.215 75.451 41.579 75.536 41.003 75.631 C 40.427 75.729 40.043 75.801 39.851 75.848 L 39.851 107.455 L 33.155 107.455 L 33.155 71.097 L 33.155 71.097 Z " fill="rgb(255,255,255)"/><path d=" M 88.494 88.512 C 88.494 85.2 88.973 82.309 89.934 79.835 C 90.894 77.364 92.166 75.312 93.75 73.68 C 95.334 72.048 97.157 70.825 99.222 70.008 C 101.285 69.193 103.398 68.784 105.558 68.784 C 110.598 68.784 114.461 70.356 117.15 73.499 C 119.838 76.644 121.182 81.433 121.182 87.864 C 121.182 88.151 121.182 88.524 121.182 88.979 C 121.182 89.436 121.158 89.856 121.11 90.239 L 95.478 90.239 C 95.766 94.128 96.894 97.079 98.862 99.095 C 100.83 101.112 103.902 102.119 108.078 102.119 C 110.43 102.119 112.41 101.915 114.018 101.507 C 115.626 101.1 116.837 100.703 117.654 100.319 L 118.59 105.935 C 117.773 106.368 116.345 106.824 114.306 107.303 C 112.265 107.782 109.95 108.023 107.358 108.023 C 104.093 108.023 101.274 107.53 98.898 106.547 C 96.522 105.564 94.565 104.207 93.03 102.479 C 91.493 100.75 90.354 98.7 89.61 96.323 C 88.866 93.948 88.494 91.345 88.494 88.512 L 88.494 88.512 Z  M 114.041 84.84 C 114.088 81.816 113.333 79.331 111.773 77.388 C 110.213 75.445 108.065 74.472 105.329 74.472 C 103.792 74.472 102.436 74.773 101.261 75.372 C 100.084 75.973 99.089 76.752 98.273 77.712 C 97.456 78.673 96.821 79.776 96.365 81.024 C 95.908 82.273 95.609 83.545 95.465 84.84 L 114.041 84.84 L 114.041 84.84 Z " fill="rgb(255,255,255)"/><path d=" M 132.532 69.791 L 146.716 69.791 L 146.716 75.406 L 132.532 75.406 L 132.532 92.687 C 132.532 94.558 132.676 96.107 132.964 97.331 C 133.252 98.555 133.684 99.516 134.26 100.211 C 134.836 100.907 135.556 101.399 136.42 101.688 C 137.284 101.975 138.292 102.12 139.444 102.12 C 141.46 102.12 143.08 101.892 144.304 101.436 C 145.528 100.98 146.38 100.656 146.86 100.463 L 148.156 106.007 C 147.483 106.344 146.308 106.764 144.628 107.268 C 142.947 107.772 141.028 108.024 138.868 108.024 C 136.324 108.024 134.224 107.7 132.568 107.051 C 130.912 106.403 129.58 105.432 128.572 104.135 C 127.564 102.839 126.855 101.244 126.448 99.348 C 126.04 97.452 125.836 95.256 125.836 92.759 L 125.836 59.352 L 132.532 58.2 L 132.532 69.791 Z " fill="rgb(255,255,255)"/><path d=" M 166.787 69.225 C 167.363 69.225 168.022 69.261 168.767 69.333 C 169.511 69.405 170.243 69.501 170.963 69.62 C 171.683 69.741 172.342 69.861 172.943 69.98 C 173.543 70.1 173.987 70.209 174.275 70.304 L 173.123 76.136 C 172.594 75.945 171.719 75.716 170.495 75.451 C 169.271 75.188 167.698 75.055 165.779 75.055 C 164.53 75.055 163.295 75.188 162.071 75.451 C 160.847 75.716 160.043 75.896 159.659 75.992 L 159.659 107.455 L 152.963 107.455 L 152.963 71.601 C 154.547 71.025 156.515 70.485 158.867 69.981 C 161.218 69.477 163.859 69.225 166.787 69.225 L 166.787 69.225 Z " fill="rgb(255,255,255)"/><path d=" M 182.656 63.249 C 181.456 63.249 180.435 62.853 179.596 62.061 C 178.755 61.269 178.336 60.201 178.336 58.857 C 178.336 57.513 178.755 56.445 179.596 55.653 C 180.435 54.861 181.455 54.465 182.656 54.465 C 183.856 54.465 184.876 54.861 185.716 55.653 C 186.555 56.445 186.976 57.513 186.976 58.857 C 186.976 60.201 186.555 61.269 185.716 62.061 C 184.876 62.852 183.856 63.249 182.656 63.249 Z  M 186.041 107.456 L 179.345 107.456 L 179.345 70.017 L 186.041 70.017 L 186.041 107.456 Z " fill="rgb(255,255,255)"/><path d=" M 209.366 108.023 C 206.342 108.023 203.689 107.544 201.41 106.583 C 199.13 105.624 197.209 104.28 195.65 102.552 C 194.089 100.823 192.924 98.772 192.158 96.396 C 191.389 94.02 191.006 91.392 191.006 88.512 C 191.006 85.632 191.426 82.992 192.266 80.592 C 193.106 78.193 194.293 76.116 195.83 74.364 C 197.365 72.612 199.25 71.244 201.482 70.26 C 203.713 69.277 206.198 68.784 208.933 68.784 C 210.613 68.784 212.292 68.928 213.973 69.216 C 215.653 69.504 217.261 69.96 218.797 70.583 L 217.285 76.271 C 216.277 75.792 215.112 75.407 213.793 75.12 C 212.473 74.831 211.068 74.687 209.581 74.687 C 205.837 74.687 202.968 75.864 200.977 78.215 C 198.985 80.567 197.99 84 197.99 88.511 C 197.99 90.528 198.217 92.375 198.674 94.055 C 199.13 95.736 199.85 97.176 200.834 98.375 C 201.817 99.575 203.077 100.498 204.614 101.146 C 206.149 101.794 208.021 102.119 210.23 102.119 C 212.004 102.119 213.614 101.951 215.053 101.615 C 216.493 101.279 217.62 100.92 218.437 100.535 L 219.374 106.15 C 218.989 106.391 218.437 106.619 217.718 106.834 C 216.998 107.051 216.182 107.242 215.27 107.41 C 214.358 107.578 213.386 107.723 212.354 107.843 C 211.321 107.963 210.325 108.023 209.366 108.023 L 209.366 108.023 Z " fill="rgb(255,255,255)"/><path d=" M 236.053 102.335 C 238.789 102.335 240.817 101.976 242.137 101.256 C 243.457 100.536 244.117 99.384 244.117 97.8 C 244.117 96.169 243.469 94.872 242.173 93.911 C 240.877 92.952 238.74 91.872 235.765 90.672 C 234.326 90.096 232.945 89.509 231.625 88.907 C 230.305 88.307 229.165 87.6 228.205 86.784 C 227.244 85.968 226.477 84.983 225.901 83.831 C 225.325 82.68 225.037 81.265 225.037 79.583 C 225.037 76.271 226.261 73.644 228.709 71.7 C 231.157 69.756 234.493 68.784 238.717 68.784 C 239.773 68.784 240.829 68.845 241.885 68.964 C 242.941 69.084 243.925 69.228 244.837 69.396 C 245.748 69.565 246.553 69.746 247.249 69.936 C 247.944 70.128 248.484 70.296 248.869 70.44 L 247.645 76.201 C 246.924 75.816 245.796 75.421 244.26 75.013 C 242.724 74.606 240.876 74.401 238.716 74.401 C 236.844 74.401 235.212 74.774 233.82 75.517 C 232.427 76.262 231.732 77.425 231.732 79.009 C 231.732 79.825 231.887 80.545 232.2 81.168 C 232.512 81.793 232.992 82.356 233.639 82.861 C 234.287 83.365 235.091 83.832 236.051 84.264 C 237.011 84.696 238.163 85.153 239.507 85.632 C 241.282 86.304 242.866 86.964 244.259 87.612 C 245.651 88.259 246.839 89.015 247.823 89.88 C 248.806 90.743 249.562 91.788 250.091 93.012 C 250.62 94.236 250.883 95.737 250.883 97.512 C 250.883 100.968 249.599 103.585 247.031 105.361 C 244.463 107.136 240.802 108.024 236.051 108.024 C 232.739 108.024 230.148 107.748 228.276 107.197 C 226.404 106.645 225.131 106.224 224.46 105.936 L 225.684 100.176 C 226.452 100.464 227.676 100.896 229.357 101.472 C 231.038 102.048 233.269 102.335 236.053 102.335 L 236.053 102.335 Z " fill="rgb(255,255,255)"/></g><g><path d=" M 89.275 56.107 C 87.956 56.107 86.832 55.67 85.911 54.798 C 84.985 53.928 84.524 52.753 84.524 51.275 C 84.524 49.797 84.984 48.622 85.911 47.75 C 86.832 46.88 87.956 46.443 89.275 46.443 C 90.595 46.443 91.718 46.88 92.642 47.75 C 93.566 48.622 94.028 49.798 94.028 51.275 C 94.028 52.754 93.566 53.928 92.642 54.798 C 91.718 55.671 90.595 56.107 89.275 56.107 Z " fill="rgb(236,98,54)"/><path d=" M 89.275 45.651 C 87.956 45.651 86.832 45.215 85.911 44.343 C 84.985 43.473 84.524 42.297 84.524 40.82 C 84.524 39.341 84.984 38.167 85.911 37.295 C 86.832 36.425 87.956 35.988 89.275 35.988 C 90.595 35.988 91.718 36.425 92.642 37.295 C 93.566 38.167 94.028 39.342 94.028 40.82 C 94.028 42.298 93.566 43.473 92.642 44.343 C 91.718 45.216 90.595 45.651 89.275 45.651 Z " fill="rgb(68,157,215)"/><path d=" M 89.275 53.678 C 87.956 53.678 86.832 53.242 85.911 52.37 C 84.985 51.5 84.524 50.325 84.524 48.847 C 84.524 47.369 84.984 46.194 85.911 45.322 C 86.832 44.452 87.956 44.015 89.275 44.015 C 90.595 44.015 91.718 44.452 92.642 45.322 C 93.566 46.194 94.028 47.369 94.028 48.847 C 94.028 50.325 93.566 51.5 92.642 52.37 C 91.718 53.242 90.595 53.678 89.275 53.678 Z " fill="rgb(154,155,155)"/></g><g><path d=" M 115.776 28.761 C 114.457 28.761 113.333 28.324 112.411 27.452 C 111.485 26.582 111.024 25.406 111.024 23.929 C 111.024 22.45 111.485 21.276 112.411 20.404 C 113.333 19.534 114.456 19.097 115.776 19.097 C 117.096 19.097 118.219 19.534 119.143 20.404 C 120.067 21.276 120.529 22.451 120.529 23.929 C 120.529 25.407 120.067 26.582 119.143 27.452 C 118.219 28.324 117.096 28.761 115.776 28.761 Z " fill="rgb(61,50,94)"/><path d=" M 115.776 41.222 C 114.457 41.222 113.333 40.786 112.411 39.914 C 111.485 39.044 111.024 37.869 111.024 36.391 C 111.024 34.913 111.485 33.738 112.411 32.866 C 113.333 31.996 114.456 31.559 115.776 31.559 C 117.096 31.559 118.219 31.996 119.143 32.866 C 120.067 33.738 120.529 34.914 120.529 36.391 C 120.529 37.87 120.067 39.044 119.143 39.914 C 118.219 40.786 117.096 41.222 115.776 41.222 Z " fill="rgb(154,155,155)"/><path d=" M 115.776 20.733 C 114.457 20.733 113.333 20.299 112.411 19.426 C 111.485 18.556 111.023 17.381 111.023 15.902 C 111.023 14.425 111.485 13.249 112.411 12.378 C 113.333 11.507 114.456 11.072 115.776 11.072 C 117.095 11.072 118.219 11.507 119.143 12.378 C 120.067 13.249 120.529 14.426 120.529 15.902 C 120.529 17.381 120.067 18.556 119.143 19.426 C 118.219 20.3 117.095 20.733 115.776 20.733 Z " fill="rgb(68,157,215)"/><path d=" M 115.776 57.631 C 114.457 57.631 113.333 57.196 112.411 56.324 C 111.485 55.454 111.024 54.278 111.024 52.801 C 111.024 51.322 111.485 50.148 112.411 49.275 C 113.333 48.405 114.456 47.969 115.776 47.969 C 117.096 47.969 118.219 48.405 119.143 49.275 C 120.067 50.148 120.529 51.323 120.529 52.801 C 120.529 54.279 120.067 55.454 119.143 56.324 C 118.219 57.196 117.096 57.631 115.776 57.631 Z " fill="rgb(236,98,54)"/><path d=" M 115.776 50.592 C 114.457 50.592 113.333 50.158 112.411 49.286 C 111.485 48.416 111.024 47.24 111.024 45.763 C 111.024 44.284 111.485 43.11 112.411 42.238 C 113.333 41.368 114.456 40.931 115.776 40.931 C 117.096 40.931 118.219 41.368 119.143 42.238 C 120.067 43.11 120.529 44.285 120.529 45.763 C 120.529 47.241 120.067 48.416 119.143 49.286 C 118.219 50.158 117.096 50.592 115.776 50.592 Z " fill="rgb(68,157,215)"/></g><g><path d=" M 37.505 59.664 C 36.186 59.664 35.062 59.228 34.141 58.356 C 33.215 57.486 32.754 56.31 32.754 54.833 C 32.754 53.354 33.214 52.18 34.141 51.308 C 35.062 50.438 36.186 50.001 37.505 50.001 C 38.825 50.001 39.948 50.438 40.872 51.308 C 41.796 52.18 42.258 53.355 42.258 54.833 C 42.258 56.311 41.796 57.486 40.872 58.356 C 39.948 59.228 38.825 59.664 37.505 59.664 Z " fill="rgb(236,98,54)"/><g><path d=" M 37.505 49.765 C 36.186 49.765 35.062 49.33 34.141 48.457 C 33.215 47.587 32.754 46.412 32.754 44.934 C 32.754 43.456 33.214 42.281 34.141 41.409 C 35.062 40.539 36.186 40.103 37.505 40.103 C 38.825 40.103 39.948 40.539 40.872 41.409 C 41.796 42.281 42.258 43.457 42.258 44.934 C 42.258 46.413 41.796 47.587 40.872 48.457 C 39.948 49.33 38.825 49.765 37.505 49.765 Z " fill="rgb(68,157,215)"/><path d=" M 37.505 63.142 C 36.186 63.142 35.062 62.705 34.14 61.833 C 33.214 60.963 32.753 59.787 32.753 58.31 C 32.753 56.831 33.214 55.657 34.14 54.785 C 35.062 53.915 36.185 53.478 37.505 53.478 C 38.825 53.478 39.948 53.915 40.872 54.785 C 41.796 55.657 42.258 56.832 42.258 58.31 C 42.258 59.788 41.796 60.963 40.872 61.833 C 39.948 62.705 38.825 63.142 37.505 63.142 Z " fill="rgb(154,155,155)"/></g></g><g><path d=" M 102.525 57.359 C 101.206 57.359 100.082 56.923 99.16 56.051 C 98.234 55.181 97.773 54.006 97.773 52.528 C 97.773 51.05 98.234 49.875 99.16 49.003 C 100.082 48.133 101.205 47.696 102.525 47.696 C 103.845 47.696 104.968 48.133 105.892 49.003 C 106.816 49.875 107.278 51.051 107.278 52.528 C 107.278 54.007 106.816 55.181 105.892 56.051 C 104.968 56.924 103.845 57.359 102.525 57.359 Z " fill="rgb(61,50,94)"/><path d=" M 76.213 63.289 C 74.894 63.289 73.77 62.853 72.848 61.981 C 71.922 61.111 71.461 59.936 71.461 58.458 C 71.461 56.98 71.922 55.805 72.848 54.933 C 73.77 54.063 74.893 53.626 76.213 53.626 C 77.533 53.626 78.656 54.063 79.58 54.933 C 80.504 55.805 80.966 56.981 80.966 58.458 C 80.966 59.937 80.504 61.111 79.58 61.981 C 78.656 62.853 77.533 63.289 76.213 63.289 Z " fill="rgb(61,50,94)"/><g><path d=" M 76.213 16.002 C 74.894 16.002 73.77 15.567 72.849 14.695 C 71.923 13.825 71.462 12.649 71.462 11.172 C 71.462 9.693 71.923 8.519 72.849 7.647 C 73.77 6.777 74.894 6.34 76.213 6.34 C 77.533 6.34 78.656 6.777 79.58 7.647 C 80.504 8.519 80.966 9.694 80.966 11.172 C 80.966 12.65 80.504 13.825 79.58 14.695 C 78.656 15.567 77.533 16.002 76.213 16.002 Z " fill="rgb(236,98,54)"/><g><g><path d=" M 76.213 9.662 C 74.894 9.662 73.77 9.227 72.849 8.355 C 71.923 7.485 71.462 6.309 71.462 4.832 C 71.462 3.353 71.923 2.179 72.849 1.306 C 73.77 0.436 74.894 0 76.213 0 C 77.533 0 78.656 0.436 79.58 1.306 C 80.504 2.179 80.966 3.354 80.966 4.832 C 80.966 6.31 80.504 7.485 79.58 8.355 C 78.656 9.227 77.533 9.662 76.213 9.662 Z " fill="rgb(154,155,155)"/><path d=" M 76.213 26.143 C 74.894 26.143 73.77 25.708 72.849 24.836 C 71.923 23.966 71.462 22.79 71.462 21.313 C 71.462 19.834 71.923 18.66 72.849 17.788 C 73.77 16.918 74.894 16.481 76.213 16.481 C 77.533 16.481 78.656 16.918 79.58 17.788 C 80.504 18.66 80.966 19.835 80.966 21.313 C 80.966 22.791 80.504 23.966 79.58 24.836 C 78.656 25.708 77.533 26.143 76.213 26.143 Z " fill="rgb(68,157,215)"/></g><path d=" M 76.213 42.288 C 74.894 42.288 73.77 41.853 72.849 40.981 C 71.923 40.111 71.462 38.935 71.462 37.458 C 71.462 35.979 71.923 34.805 72.849 33.933 C 73.77 33.063 74.894 32.626 76.213 32.626 C 77.533 32.626 78.656 33.063 79.58 33.933 C 80.504 34.805 80.966 35.98 80.966 37.458 C 80.966 38.936 80.504 40.111 79.58 40.981 C 78.656 41.853 77.533 42.288 76.213 42.288 Z " fill="rgb(236,98,54)"/></g></g></g><g><g><path d=" M 102.525 15.071 C 101.206 15.071 100.083 14.634 99.161 13.762 C 98.235 12.892 97.774 11.716 97.774 10.239 C 97.774 8.76 98.235 7.586 99.161 6.714 C 100.083 5.844 101.206 5.407 102.525 5.407 C 103.845 5.407 104.968 5.844 105.892 6.714 C 106.816 7.586 107.278 8.761 107.278 10.239 C 107.278 11.717 106.816 12.892 105.892 13.762 C 104.968 14.635 103.845 15.071 102.525 15.071 Z " fill="rgb(68,157,215)"/><path d=" M 102.525 39.885 C 101.206 39.885 100.083 39.451 99.161 38.579 C 98.235 37.709 97.774 36.533 97.774 35.056 C 97.774 33.577 98.235 32.403 99.161 31.531 C 100.083 30.661 101.206 30.224 102.525 30.224 C 103.845 30.224 104.968 30.661 105.892 31.531 C 106.816 32.403 107.278 33.578 107.278 35.056 C 107.278 36.534 106.816 37.709 105.892 38.579 C 104.968 39.451 103.845 39.885 102.525 39.885 Z " fill="rgb(68,157,215)"/></g><path d=" M 102.525 19.902 C 101.206 19.902 100.083 19.466 99.161 18.593 C 98.235 17.723 97.774 16.548 97.774 15.07 C 97.774 13.592 98.235 12.417 99.161 11.545 C 100.083 10.675 101.206 10.239 102.525 10.239 C 103.845 10.239 104.968 10.675 105.892 11.545 C 106.816 12.417 107.278 13.593 107.278 15.07 C 107.278 16.549 106.816 17.723 105.892 18.593 C 104.968 19.467 103.845 19.902 102.525 19.902 Z " fill="rgb(154,155,155)"/><path d=" M 102.525 63.197 C 101.206 63.197 100.083 62.762 99.161 61.889 C 98.235 61.019 97.774 59.844 97.774 58.366 C 97.774 56.888 98.235 55.713 99.161 54.841 C 100.083 53.971 101.206 53.535 102.525 53.535 C 103.845 53.535 104.968 53.971 105.892 54.841 C 106.816 55.713 107.278 56.889 107.278 58.366 C 107.278 59.845 106.816 61.019 105.892 61.889 C 104.968 62.763 103.845 63.197 102.525 63.197 Z " fill="rgb(236,98,54)"/></g><g><path d=" M 50.212 31.073 C 48.893 31.073 47.769 30.638 46.848 29.766 C 45.922 28.896 45.461 27.72 45.461 26.243 C 45.461 24.764 45.921 23.59 46.848 22.717 C 47.769 21.847 48.893 21.411 50.212 21.411 C 51.532 21.411 52.655 21.847 53.579 22.717 C 54.503 23.59 54.965 24.765 54.965 26.243 C 54.965 27.721 54.503 28.896 53.579 29.766 C 52.655 30.639 51.533 31.073 50.212 31.073 Z " fill="rgb(61,50,94)"/><g><path d=" M 50.212 26.242 C 48.893 26.242 47.77 25.807 46.848 24.935 C 45.922 24.065 45.461 22.889 45.461 21.412 C 45.461 19.933 45.922 18.759 46.848 17.886 C 47.77 17.016 48.893 16.58 50.212 16.58 C 51.532 16.58 52.655 17.016 53.579 17.886 C 54.503 18.759 54.965 19.934 54.965 21.412 C 54.965 22.89 54.503 24.065 53.579 24.935 C 52.655 25.808 51.533 26.242 50.212 26.242 Z " fill="rgb(236,98,54)"/><g><g><path d=" M 50.212 19.902 C 48.893 19.902 47.77 19.467 46.848 18.594 C 45.922 17.724 45.461 16.549 45.461 15.071 C 45.461 13.593 45.922 12.418 46.848 11.546 C 47.77 10.676 48.893 10.24 50.212 10.24 C 51.532 10.24 52.655 10.676 53.579 11.546 C 54.503 12.418 54.965 13.594 54.965 15.071 C 54.965 16.55 54.503 17.724 53.579 18.594 C 52.655 19.468 51.533 19.902 50.212 19.902 Z " fill="rgb(154,155,155)"/><path d=" M 50.212 36.383 C 48.893 36.383 47.77 35.948 46.848 35.076 C 45.922 34.206 45.461 33.03 45.461 31.553 C 45.461 30.074 45.922 28.9 46.848 28.027 C 47.77 27.157 48.893 26.721 50.212 26.721 C 51.532 26.721 52.655 27.157 53.579 28.027 C 54.503 28.9 54.965 30.075 54.965 31.553 C 54.965 33.031 54.503 34.206 53.579 35.076 C 52.655 35.948 51.533 36.383 50.212 36.383 Z " fill="rgb(68,157,215)"/></g><path d=" M 50.212 52.528 C 48.893 52.528 47.77 52.093 46.848 51.221 C 45.922 50.351 45.461 49.175 45.461 47.698 C 45.461 46.219 45.922 45.045 46.848 44.172 C 47.77 43.302 48.893 42.866 50.212 42.866 C 51.532 42.866 52.655 43.302 53.579 44.172 C 54.503 45.045 54.965 46.22 54.965 47.698 C 54.965 49.176 54.503 50.351 53.579 51.221 C 52.655 52.094 51.533 52.528 50.212 52.528 Z " fill="rgb(236,98,54)"/></g></g></g><g><g><g><path d=" M 63.088 30.322 C 61.769 30.322 60.645 29.885 59.723 29.013 C 58.797 28.143 58.336 26.968 58.336 25.49 C 58.336 24.012 58.797 22.837 59.723 21.966 C 60.645 21.095 61.768 20.658 63.088 20.658 C 64.408 20.658 65.53 21.095 66.454 21.966 C 67.378 22.837 67.84 24.012 67.84 25.49 C 67.84 26.968 67.378 28.143 66.454 29.013 C 65.53 29.886 64.408 30.322 63.088 30.322 Z " fill="rgb(154,155,155)"/><path d=" M 63.088 32.909 C 61.769 32.909 60.645 32.473 59.723 31.601 C 58.797 30.731 58.336 29.555 58.336 28.078 C 58.336 26.599 58.797 25.425 59.723 24.553 C 60.645 23.683 61.768 23.246 63.088 23.246 C 64.408 23.246 65.53 23.683 66.454 24.553 C 67.378 25.425 67.84 26.6 67.84 28.078 C 67.84 29.556 67.378 30.731 66.454 31.601 C 65.53 32.474 64.408 32.909 63.088 32.909 Z " fill="rgb(236,98,54)"/><path d=" M 63.088 52.121 C 61.769 52.121 60.645 51.686 59.723 50.814 C 58.797 49.944 58.336 48.768 58.336 47.291 C 58.336 45.812 58.797 44.638 59.723 43.766 C 60.645 42.896 61.768 42.459 63.088 42.459 C 64.408 42.459 65.53 42.896 66.454 43.766 C 67.378 44.638 67.84 45.813 67.84 47.291 C 67.84 48.769 67.378 49.944 66.454 50.814 C 65.53 51.686 64.408 52.121 63.088 52.121 Z " fill="rgb(68,157,215)"/><path d=" M 63.088 57.959 C 61.769 57.959 60.645 57.523 59.723 56.651 C 58.797 55.781 58.336 54.606 58.336 53.128 C 58.336 51.65 58.797 50.475 59.723 49.603 C 60.645 48.733 61.768 48.296 63.088 48.296 C 64.408 48.296 65.53 48.733 66.454 49.603 C 67.378 50.475 67.84 51.651 67.84 53.128 C 67.84 54.607 67.378 55.781 66.454 56.651 C 65.53 57.523 64.408 57.959 63.088 57.959 Z " fill="rgb(154,155,155)"/></g><path d=" M 63.088 44.717 C 61.769 44.717 60.645 44.282 59.723 43.41 C 58.797 42.54 58.336 41.364 58.336 39.887 C 58.336 38.408 58.797 37.234 59.723 36.361 C 60.645 35.491 61.768 35.055 63.088 35.055 C 64.408 35.055 65.53 35.491 66.454 36.361 C 67.378 37.234 67.84 38.409 67.84 39.887 C 67.84 41.365 67.378 42.54 66.454 43.41 C 65.53 44.282 64.408 44.717 63.088 44.717 Z " fill="rgb(68,157,215)"/></g><path d=" M 63.087 46.048 C 61.768 46.048 60.645 45.613 59.723 44.741 C 58.797 43.871 58.336 42.695 58.336 41.218 C 58.336 39.739 58.797 38.565 59.723 37.692 C 60.645 36.822 61.768 36.386 63.087 36.386 C 64.407 36.386 65.53 36.822 66.454 37.692 C 67.378 38.565 67.84 39.74 67.84 41.218 C 67.84 42.696 67.378 43.871 66.454 44.741 C 65.53 45.613 64.408 46.048 63.087 46.048 Z " fill="rgb(61,50,94)"/></g><path d=" M 37.505 42.789 C 36.186 42.789 35.062 42.353 34.141 41.481 C 33.215 40.611 32.754 39.435 32.754 37.958 C 32.754 36.479 33.214 35.305 34.141 34.433 C 35.062 33.563 36.186 33.126 37.505 33.126 C 38.825 33.126 39.948 33.563 40.872 34.433 C 41.796 35.305 42.258 36.48 42.258 37.958 C 42.258 39.436 41.796 40.611 40.872 41.481 C 39.948 42.353 38.825 42.789 37.505 42.789 Z " fill="rgb(61,50,94)"/><path d=" M 89.275 23.246 C 87.956 23.246 86.832 22.81 85.91 21.938 C 84.984 21.068 84.523 19.893 84.523 18.415 C 84.523 16.937 84.984 15.762 85.91 14.89 C 86.832 14.02 87.955 13.583 89.275 13.583 C 90.595 13.583 91.718 14.02 92.642 14.89 C 93.566 15.762 94.028 16.938 94.028 18.415 C 94.028 19.894 93.566 21.068 92.642 21.938 C 91.718 22.81 90.596 23.246 89.275 23.246 Z " fill="rgb(61,50,94)"/></g></g></g></svg>