<svg width="250.885" height="111.417" xmlns="http://www.w3.org/2000/svg">

 <g>
  <title>background</title>
  <rect fill="none" id="canvas_background" height="402" width="582" y="-1" x="-1"/>
 </g>
 <g>
  <title>Layer 1</title>
  <g id="svg_10">
   <path id="svg_11" d="m89.275,57.068c-1.319,0 -2.443,-0.437 -3.364,-1.309c-0.926,-0.87 -1.387,-2.045 -1.387,-3.523c0,-1.478 0.46,-2.653 1.387,-3.525c0.921,-0.87 2.045,-1.307 3.364,-1.307c1.32,0 2.443,0.437 3.367,1.307c0.924,0.872 1.386,2.048 1.386,3.525c0,1.479 -0.462,2.653 -1.386,3.523c-0.924,0.873 -2.047,1.309 -3.367,1.309" fill="#EC6236"/>
   <path id="svg_12" d="m89.275,46.612c-1.319,0 -2.443,-0.436 -3.364,-1.308c-0.926,-0.87 -1.387,-2.046 -1.387,-3.523c0,-1.479 0.46,-2.653 1.387,-3.525c0.921,-0.87 2.045,-1.307 3.364,-1.307c1.32,0 2.443,0.437 3.367,1.307c0.924,0.872 1.386,2.047 1.386,3.525c0,1.478 -0.462,2.653 -1.386,3.523c-0.924,0.873 -2.047,1.308 -3.367,1.308" fill="#449DD7"/>
   <path id="svg_13" d="m89.275,54.639c-1.319,0 -2.443,-0.436 -3.364,-1.308c-0.926,-0.87 -1.387,-2.045 -1.387,-3.523s0.46,-2.653 1.387,-3.525c0.921,-0.87 2.045,-1.307 3.364,-1.307c1.32,0 2.443,0.437 3.367,1.307c0.924,0.872 1.386,2.047 1.386,3.525s-0.462,2.653 -1.386,3.523c-0.924,0.872 -2.047,1.308 -3.367,1.308" fill="#9A9B9B"/>
  </g>
  <g id="svg_14">
   <path id="svg_15" d="m115.776,29.722c-1.319,0 -2.443,-0.437 -3.365,-1.309c-0.926,-0.87 -1.387,-2.046 -1.387,-3.523c0,-1.479 0.461,-2.653 1.387,-3.525c0.922,-0.87 2.045,-1.307 3.365,-1.307c1.32,0 2.443,0.437 3.367,1.307c0.924,0.872 1.386,2.047 1.386,3.525c0,1.478 -0.462,2.653 -1.386,3.523c-0.924,0.872 -2.047,1.309 -3.367,1.309" fill="#3D325E"/>
   <path id="svg_16" d="m115.776,42.183c-1.319,0 -2.443,-0.436 -3.365,-1.308c-0.926,-0.87 -1.387,-2.045 -1.387,-3.523c0,-1.478 0.461,-2.653 1.387,-3.525c0.922,-0.87 2.045,-1.307 3.365,-1.307c1.32,0 2.443,0.437 3.367,1.307c0.924,0.872 1.386,2.048 1.386,3.525c0,1.479 -0.462,2.653 -1.386,3.523c-0.924,0.872 -2.047,1.308 -3.367,1.308" fill="#9A9B9B"/>
   <path id="svg_17" d="m115.776,21.694c-1.319,0 -2.443,-0.434 -3.365,-1.307c-0.926,-0.87 -1.388,-2.045 -1.388,-3.524c0,-1.477 0.462,-2.653 1.388,-3.524c0.922,-0.871 2.045,-1.306 3.365,-1.306c1.319,0 2.443,0.435 3.367,1.306s1.386,2.048 1.386,3.524c0,1.479 -0.462,2.654 -1.386,3.524c-0.924,0.874 -2.048,1.307 -3.367,1.307" fill="#449DD7"/>
   <path id="svg_18" d="m115.776,58.592c-1.319,0 -2.443,-0.435 -3.365,-1.307c-0.926,-0.87 -1.387,-2.046 -1.387,-3.523c0,-1.479 0.461,-2.653 1.387,-3.526c0.922,-0.87 2.045,-1.306 3.365,-1.306c1.32,0 2.443,0.436 3.367,1.306c0.924,0.873 1.386,2.048 1.386,3.526c0,1.478 -0.462,2.653 -1.386,3.523c-0.924,0.872 -2.047,1.307 -3.367,1.307" fill="#EC6236"/>
   <path id="svg_19" d="m115.776,51.553c-1.319,0 -2.443,-0.434 -3.365,-1.306c-0.926,-0.87 -1.387,-2.046 -1.387,-3.523c0,-1.479 0.461,-2.653 1.387,-3.525c0.922,-0.87 2.045,-1.307 3.365,-1.307c1.32,0 2.443,0.437 3.367,1.307c0.924,0.872 1.386,2.047 1.386,3.525c0,1.478 -0.462,2.653 -1.386,3.523c-0.924,0.872 -2.047,1.306 -3.367,1.306" fill="#449DD7"/>
  </g>
  <g id="svg_20">
   <path id="svg_21" d="m37.505,60.625c-1.319,0 -2.443,-0.436 -3.364,-1.308c-0.926,-0.87 -1.387,-2.046 -1.387,-3.523c0,-1.479 0.46,-2.653 1.387,-3.525c0.921,-0.87 2.045,-1.307 3.364,-1.307c1.32,0 2.443,0.437 3.367,1.307c0.924,0.872 1.386,2.047 1.386,3.525c0,1.478 -0.462,2.653 -1.386,3.523c-0.924,0.872 -2.047,1.308 -3.367,1.308" fill="#EC6236"/>
   <g id="svg_22">
    <path id="svg_23" d="m37.505,50.726c-1.319,0 -2.443,-0.435 -3.364,-1.308c-0.926,-0.87 -1.387,-2.045 -1.387,-3.523c0,-1.478 0.46,-2.653 1.387,-3.525c0.921,-0.87 2.045,-1.306 3.364,-1.306c1.32,0 2.443,0.436 3.367,1.306c0.924,0.872 1.386,2.048 1.386,3.525c0,1.479 -0.462,2.653 -1.386,3.523c-0.924,0.873 -2.047,1.308 -3.367,1.308" fill="#449DD7"/>
    <path id="svg_24" d="m37.505,64.103c-1.319,0 -2.443,-0.437 -3.365,-1.309c-0.926,-0.87 -1.387,-2.046 -1.387,-3.523c0,-1.479 0.461,-2.653 1.387,-3.525c0.922,-0.87 2.045,-1.307 3.365,-1.307c1.32,0 2.443,0.437 3.367,1.307c0.924,0.872 1.386,2.047 1.386,3.525c0,1.478 -0.462,2.653 -1.386,3.523c-0.924,0.872 -2.047,1.309 -3.367,1.309" fill="#9A9B9B"/>
   </g>
  </g>
  <g id="svg_25">
   <path id="svg_26" d="m102.525,58.32c-1.319,0 -2.443,-0.436 -3.365,-1.308c-0.926,-0.87 -1.387,-2.045 -1.387,-3.523c0,-1.478 0.461,-2.653 1.387,-3.525c0.922,-0.87 2.045,-1.307 3.365,-1.307c1.32,0 2.443,0.437 3.367,1.307c0.924,0.872 1.386,2.048 1.386,3.525c0,1.479 -0.462,2.653 -1.386,3.523c-0.924,0.873 -2.047,1.308 -3.367,1.308" fill="#3D325E"/>
   <path id="svg_27" d="m76.213,64.25c-1.319,0 -2.443,-0.436 -3.365,-1.308c-0.926,-0.87 -1.387,-2.045 -1.387,-3.523c0,-1.478 0.461,-2.653 1.387,-3.525c0.922,-0.87 2.045,-1.307 3.365,-1.307c1.32,0 2.443,0.437 3.367,1.307c0.924,0.872 1.386,2.048 1.386,3.525c0,1.479 -0.462,2.653 -1.386,3.523c-0.924,0.872 -2.047,1.308 -3.367,1.308" fill="#3D325E"/>
   <g id="svg_28">
    <path id="svg_29" d="m76.213,16.963c-1.319,0 -2.443,-0.435 -3.364,-1.307c-0.926,-0.87 -1.387,-2.046 -1.387,-3.523c0,-1.479 0.461,-2.653 1.387,-3.525c0.921,-0.87 2.045,-1.307 3.364,-1.307c1.32,0 2.443,0.437 3.367,1.307c0.924,0.872 1.386,2.047 1.386,3.525c0,1.478 -0.462,2.653 -1.386,3.523c-0.924,0.872 -2.047,1.307 -3.367,1.307" fill="#EC6236"/>
    <g id="svg_30">
     <g id="svg_31">
      <path id="svg_32" d="m76.213,10.623c-1.319,0 -2.443,-0.435 -3.364,-1.307c-0.926,-0.87 -1.387,-2.046 -1.387,-3.523c0,-1.479 0.461,-2.653 1.387,-3.526c0.921,-0.87 2.045,-1.306 3.364,-1.306c1.32,0 2.443,0.436 3.367,1.306c0.924,0.873 1.386,2.048 1.386,3.526c0,1.478 -0.462,2.653 -1.386,3.523c-0.924,0.872 -2.047,1.307 -3.367,1.307" fill="#9A9B9B"/>
      <path id="svg_33" d="m76.213,27.104c-1.319,0 -2.443,-0.435 -3.364,-1.307c-0.926,-0.87 -1.387,-2.046 -1.387,-3.523c0,-1.479 0.461,-2.653 1.387,-3.525c0.921,-0.87 2.045,-1.307 3.364,-1.307c1.32,0 2.443,0.437 3.367,1.307c0.924,0.872 1.386,2.047 1.386,3.525c0,1.478 -0.462,2.653 -1.386,3.523c-0.924,0.872 -2.047,1.307 -3.367,1.307" fill="#449DD7"/>
     </g>
     <path id="svg_34" d="m76.213,43.249c-1.319,0 -2.443,-0.435 -3.364,-1.307c-0.926,-0.87 -1.387,-2.046 -1.387,-3.523c0,-1.479 0.461,-2.653 1.387,-3.525c0.921,-0.87 2.045,-1.307 3.364,-1.307c1.32,0 2.443,0.437 3.367,1.307c0.924,0.872 1.386,2.047 1.386,3.525c0,1.478 -0.462,2.653 -1.386,3.523c-0.924,0.872 -2.047,1.307 -3.367,1.307" fill="#EC6236"/>
    </g>
   </g>
  </g>
  <g id="svg_35">
   <g id="svg_36">
    <path id="svg_37" d="m102.525,16.032c-1.319,0 -2.442,-0.437 -3.364,-1.309c-0.926,-0.87 -1.387,-2.046 -1.387,-3.523c0,-1.479 0.461,-2.653 1.387,-3.525c0.922,-0.87 2.045,-1.307 3.364,-1.307c1.32,0 2.443,0.437 3.367,1.307c0.924,0.872 1.386,2.047 1.386,3.525c0,1.478 -0.462,2.653 -1.386,3.523c-0.924,0.873 -2.047,1.309 -3.367,1.309" fill="#449DD7"/>
    <path id="svg_38" d="m102.525,40.846c-1.319,0 -2.442,-0.434 -3.364,-1.306c-0.926,-0.87 -1.387,-2.046 -1.387,-3.523c0,-1.479 0.461,-2.653 1.387,-3.525c0.922,-0.87 2.045,-1.307 3.364,-1.307c1.32,0 2.443,0.437 3.367,1.307c0.924,0.872 1.386,2.047 1.386,3.525c0,1.478 -0.462,2.653 -1.386,3.523c-0.924,0.872 -2.047,1.306 -3.367,1.306" fill="#449DD7"/>
   </g>
   <path id="svg_39" d="m102.525,20.863c-1.319,0 -2.442,-0.436 -3.364,-1.309c-0.926,-0.87 -1.387,-2.045 -1.387,-3.523c0,-1.478 0.461,-2.653 1.387,-3.525c0.922,-0.87 2.045,-1.306 3.364,-1.306c1.32,0 2.443,0.436 3.367,1.306c0.924,0.872 1.386,2.048 1.386,3.525c0,1.479 -0.462,2.653 -1.386,3.523c-0.924,0.874 -2.047,1.309 -3.367,1.309" fill="#9A9B9B"/>
   <path id="svg_40" d="m102.525,64.158c-1.319,0 -2.442,-0.435 -3.364,-1.308c-0.926,-0.87 -1.387,-2.045 -1.387,-3.523c0,-1.478 0.461,-2.653 1.387,-3.525c0.922,-0.87 2.045,-1.306 3.364,-1.306c1.32,0 2.443,0.436 3.367,1.306c0.924,0.872 1.386,2.048 1.386,3.525c0,1.479 -0.462,2.653 -1.386,3.523c-0.924,0.874 -2.047,1.308 -3.367,1.308" fill="#EC6236"/>
  </g>
  <g id="svg_41">
   <path id="svg_42" d="m50.212,32.034c-1.319,0 -2.443,-0.435 -3.364,-1.307c-0.926,-0.87 -1.387,-2.046 -1.387,-3.523c0,-1.479 0.46,-2.653 1.387,-3.526c0.921,-0.87 2.045,-1.306 3.364,-1.306c1.32,0 2.443,0.436 3.367,1.306c0.924,0.873 1.386,2.048 1.386,3.526c0,1.478 -0.462,2.653 -1.386,3.523c-0.924,0.873 -2.046,1.307 -3.367,1.307" fill="#3D325E"/>
   <g id="svg_43">
    <path id="svg_44" d="m50.212,27.203c-1.319,0 -2.442,-0.435 -3.364,-1.307c-0.926,-0.87 -1.387,-2.046 -1.387,-3.523c0,-1.479 0.461,-2.653 1.387,-3.526c0.922,-0.87 2.045,-1.306 3.364,-1.306c1.32,0 2.443,0.436 3.367,1.306c0.924,0.873 1.386,2.048 1.386,3.526c0,1.478 -0.462,2.653 -1.386,3.523c-0.924,0.873 -2.046,1.307 -3.367,1.307" fill="#EC6236"/>
    <g id="svg_45">
     <g id="svg_46">
      <path id="svg_47" d="m50.212,20.863c-1.319,0 -2.442,-0.435 -3.364,-1.308c-0.926,-0.87 -1.387,-2.045 -1.387,-3.523c0,-1.478 0.461,-2.653 1.387,-3.525c0.922,-0.87 2.045,-1.306 3.364,-1.306c1.32,0 2.443,0.436 3.367,1.306c0.924,0.872 1.386,2.048 1.386,3.525c0,1.479 -0.462,2.653 -1.386,3.523c-0.924,0.874 -2.046,1.308 -3.367,1.308" fill="#9A9B9B"/>
      <path id="svg_48" d="m50.212,37.344c-1.319,0 -2.442,-0.435 -3.364,-1.307c-0.926,-0.87 -1.387,-2.046 -1.387,-3.523c0,-1.479 0.461,-2.653 1.387,-3.526c0.922,-0.87 2.045,-1.306 3.364,-1.306c1.32,0 2.443,0.436 3.367,1.306c0.924,0.873 1.386,2.048 1.386,3.526c0,1.478 -0.462,2.653 -1.386,3.523c-0.924,0.872 -2.046,1.307 -3.367,1.307" fill="#449DD7"/>
     </g>
     <path id="svg_49" d="m50.212,53.489c-1.319,0 -2.442,-0.435 -3.364,-1.307c-0.926,-0.87 -1.387,-2.046 -1.387,-3.523c0,-1.479 0.461,-2.653 1.387,-3.526c0.922,-0.87 2.045,-1.306 3.364,-1.306c1.32,0 2.443,0.436 3.367,1.306c0.924,0.873 1.386,2.048 1.386,3.526c0,1.478 -0.462,2.653 -1.386,3.523c-0.924,0.873 -2.046,1.307 -3.367,1.307" fill="#EC6236"/>
    </g>
   </g>
  </g>
  <g id="svg_50">
   <g id="svg_51">
    <g id="svg_52">
     <path id="svg_53" d="m63.088,31.283c-1.319,0 -2.443,-0.437 -3.365,-1.309c-0.926,-0.87 -1.387,-2.045 -1.387,-3.523s0.461,-2.653 1.387,-3.524c0.922,-0.871 2.045,-1.308 3.365,-1.308c1.32,0 2.442,0.437 3.366,1.308s1.386,2.046 1.386,3.524s-0.462,2.653 -1.386,3.523c-0.924,0.873 -2.046,1.309 -3.366,1.309" fill="#9A9B9B"/>
     <path id="svg_54" d="m63.088,33.87c-1.319,0 -2.443,-0.436 -3.365,-1.308c-0.926,-0.87 -1.387,-2.046 -1.387,-3.523c0,-1.479 0.461,-2.653 1.387,-3.525c0.922,-0.87 2.045,-1.307 3.365,-1.307c1.32,0 2.442,0.437 3.366,1.307c0.924,0.872 1.386,2.047 1.386,3.525c0,1.478 -0.462,2.653 -1.386,3.523c-0.924,0.873 -2.046,1.308 -3.366,1.308" fill="#EC6236"/>
     <path id="svg_55" d="m63.088,53.082c-1.319,0 -2.443,-0.435 -3.365,-1.307c-0.926,-0.87 -1.387,-2.046 -1.387,-3.523c0,-1.479 0.461,-2.653 1.387,-3.525c0.922,-0.87 2.045,-1.307 3.365,-1.307c1.32,0 2.442,0.437 3.366,1.307c0.924,0.872 1.386,2.047 1.386,3.525c0,1.478 -0.462,2.653 -1.386,3.523c-0.924,0.872 -2.046,1.307 -3.366,1.307" fill="#449DD7"/>
     <path id="svg_56" d="m63.088,58.92c-1.319,0 -2.443,-0.436 -3.365,-1.308c-0.926,-0.87 -1.387,-2.045 -1.387,-3.523c0,-1.478 0.461,-2.653 1.387,-3.525c0.922,-0.87 2.045,-1.307 3.365,-1.307c1.32,0 2.442,0.437 3.366,1.307c0.924,0.872 1.386,2.048 1.386,3.525c0,1.479 -0.462,2.653 -1.386,3.523c-0.924,0.872 -2.046,1.308 -3.366,1.308" fill="#9A9B9B"/>
    </g>
    <path id="svg_57" d="m63.088,45.678c-1.319,0 -2.443,-0.435 -3.365,-1.307c-0.926,-0.87 -1.387,-2.046 -1.387,-3.523c0,-1.479 0.461,-2.653 1.387,-3.526c0.922,-0.87 2.045,-1.306 3.365,-1.306c1.32,0 2.442,0.436 3.366,1.306c0.924,0.873 1.386,2.048 1.386,3.526c0,1.478 -0.462,2.653 -1.386,3.523c-0.924,0.872 -2.046,1.307 -3.366,1.307" fill="#449DD7"/>
   </g>
   <path id="svg_58" d="m63.087,47.009c-1.319,0 -2.442,-0.435 -3.364,-1.307c-0.926,-0.87 -1.387,-2.046 -1.387,-3.523c0,-1.479 0.461,-2.653 1.387,-3.526c0.922,-0.87 2.045,-1.306 3.364,-1.306c1.32,0 2.443,0.436 3.367,1.306c0.924,0.873 1.386,2.048 1.386,3.526c0,1.478 -0.462,2.653 -1.386,3.523c-0.924,0.872 -2.046,1.307 -3.367,1.307" fill="#3D325E"/>
  </g>
  <path id="svg_59" d="m37.505,43.75c-1.319,0 -2.443,-0.436 -3.364,-1.308c-0.926,-0.87 -1.387,-2.046 -1.387,-3.523c0,-1.479 0.46,-2.653 1.387,-3.525c0.921,-0.87 2.045,-1.307 3.364,-1.307c1.32,0 2.443,0.437 3.367,1.307c0.924,0.872 1.386,2.047 1.386,3.525c0,1.478 -0.462,2.653 -1.386,3.523c-0.924,0.872 -2.047,1.308 -3.367,1.308" fill="#3D325E"/>
  <path id="svg_60" d="m89.275,24.207c-1.319,0 -2.443,-0.436 -3.365,-1.308c-0.926,-0.87 -1.387,-2.045 -1.387,-3.523c0,-1.478 0.461,-2.653 1.387,-3.525c0.922,-0.87 2.045,-1.307 3.365,-1.307c1.32,0 2.443,0.437 3.367,1.307c0.924,0.872 1.386,2.048 1.386,3.525c0,1.479 -0.462,2.653 -1.386,3.523c-0.924,0.872 -2.046,1.308 -3.367,1.308" fill="#3D325E"/>
  <text style="cursor: move;" font-style="normal" font-weight="normal" xml:space="preserve" text-anchor="start" font-family="Euphoria, sans-serif" font-size="48" id="svg_62" y="100.308496" x="29.942505" fill-opacity="null" stroke-opacity="null" stroke-width="0" stroke="#000" fill="#000000">SoMeR</text>
  <text xml:space="preserve" text-anchor="start" font-family="Euphoria, sans-serif" font-size="60" id="svg_63" y="100.308496" x="10.942505" fill-opacity="null" stroke-opacity="null" stroke-width="0" stroke="#000" fill="#000000">*</text>
 </g>
</svg>